<mxfile host="app.diagrams.net" modified="2023-12-04T12:59:17.684Z" agent="Mozilla/5.0 (Windows NT 10.0; Win64; x64) AppleWebKit/537.36 (KHTML, like Gecko) Chrome/119.0.0.0 Safari/537.36" etag="XBxaGi1-Vrrgp4lsVxla" version="22.1.5" type="device" pages="5">
  <diagram name="FLOWCHART" id="nhtoknRugYjGGnEuYzR3">
    <mxGraphModel dx="880" dy="446" grid="1" gridSize="10" guides="1" tooltips="1" connect="1" arrows="1" fold="1" page="1" pageScale="1" pageWidth="827" pageHeight="1169" math="0" shadow="0">
      <root>
        <mxCell id="0" />
        <mxCell id="1" parent="0" />
        <mxCell id="1gRp-MY8qv1C0Y7Tk_VO-3" style="edgeStyle=orthogonalEdgeStyle;rounded=0;orthogonalLoop=1;jettySize=auto;html=1;exitX=0.5;exitY=1;exitDx=0;exitDy=0;exitPerimeter=0;" parent="1" source="1gRp-MY8qv1C0Y7Tk_VO-1" target="1gRp-MY8qv1C0Y7Tk_VO-4" edge="1">
          <mxGeometry relative="1" as="geometry">
            <mxPoint x="400" y="200" as="targetPoint" />
          </mxGeometry>
        </mxCell>
        <mxCell id="1gRp-MY8qv1C0Y7Tk_VO-1" value="Mulai" style="strokeWidth=2;html=1;shape=mxgraph.flowchart.start_1;whiteSpace=wrap;" parent="1" vertex="1">
          <mxGeometry x="350" y="190" width="100" height="60" as="geometry" />
        </mxCell>
        <mxCell id="1gRp-MY8qv1C0Y7Tk_VO-7" style="edgeStyle=orthogonalEdgeStyle;rounded=0;orthogonalLoop=1;jettySize=auto;html=1;exitX=0.5;exitY=1;exitDx=0;exitDy=0;" parent="1" source="1gRp-MY8qv1C0Y7Tk_VO-4" target="1gRp-MY8qv1C0Y7Tk_VO-6" edge="1">
          <mxGeometry relative="1" as="geometry" />
        </mxCell>
        <mxCell id="1gRp-MY8qv1C0Y7Tk_VO-4" value="Login" style="rounded=0;whiteSpace=wrap;html=1;" parent="1" vertex="1">
          <mxGeometry x="340" y="310" width="120" height="60" as="geometry" />
        </mxCell>
        <mxCell id="1gRp-MY8qv1C0Y7Tk_VO-9" style="edgeStyle=orthogonalEdgeStyle;rounded=0;orthogonalLoop=1;jettySize=auto;html=1;exitX=0.5;exitY=1;exitDx=0;exitDy=0;entryX=0.5;entryY=0;entryDx=0;entryDy=0;" parent="1" source="1gRp-MY8qv1C0Y7Tk_VO-6" target="1gRp-MY8qv1C0Y7Tk_VO-8" edge="1">
          <mxGeometry relative="1" as="geometry" />
        </mxCell>
        <mxCell id="1gRp-MY8qv1C0Y7Tk_VO-6" value="Status pasien&amp;nbsp;" style="rhombus;whiteSpace=wrap;html=1;" parent="1" vertex="1">
          <mxGeometry x="360" y="430" width="80" height="80" as="geometry" />
        </mxCell>
        <mxCell id="1gRp-MY8qv1C0Y7Tk_VO-15" style="edgeStyle=orthogonalEdgeStyle;rounded=0;orthogonalLoop=1;jettySize=auto;html=1;exitX=0.5;exitY=1;exitDx=0;exitDy=0;entryX=0.5;entryY=0;entryDx=0;entryDy=0;" parent="1" source="1gRp-MY8qv1C0Y7Tk_VO-8" target="1gRp-MY8qv1C0Y7Tk_VO-14" edge="1">
          <mxGeometry relative="1" as="geometry" />
        </mxCell>
        <mxCell id="1gRp-MY8qv1C0Y7Tk_VO-8" value="No RM, No Whatsapp, pilihan hari dan waktu kontrol&lt;br/&gt;dan dokter" style="shape=parallelogram;perimeter=parallelogramPerimeter;whiteSpace=wrap;html=1;fixedSize=1;" parent="1" vertex="1">
          <mxGeometry x="310" y="555" width="180" height="65" as="geometry" />
        </mxCell>
        <mxCell id="1gRp-MY8qv1C0Y7Tk_VO-10" value="Pasien Lama" style="text;html=1;align=center;verticalAlign=middle;resizable=0;points=[];autosize=1;strokeColor=none;fillColor=none;" parent="1" vertex="1">
          <mxGeometry x="400" y="518" width="90" height="30" as="geometry" />
        </mxCell>
        <mxCell id="1gRp-MY8qv1C0Y7Tk_VO-16" style="edgeStyle=orthogonalEdgeStyle;rounded=0;orthogonalLoop=1;jettySize=auto;html=1;exitX=0.5;exitY=1;exitDx=0;exitDy=0;entryX=1;entryY=0.5;entryDx=0;entryDy=0;" parent="1" source="1gRp-MY8qv1C0Y7Tk_VO-11" target="1gRp-MY8qv1C0Y7Tk_VO-14" edge="1">
          <mxGeometry relative="1" as="geometry" />
        </mxCell>
        <mxCell id="1gRp-MY8qv1C0Y7Tk_VO-11" value="Data lengkap pasien, No Whatsapp, Pilihan hari dan&lt;br/&gt;waktu kontrol dan dokter" style="shape=parallelogram;perimeter=parallelogramPerimeter;whiteSpace=wrap;html=1;fixedSize=1;" parent="1" vertex="1">
          <mxGeometry x="540" y="555" width="180" height="65" as="geometry" />
        </mxCell>
        <mxCell id="1gRp-MY8qv1C0Y7Tk_VO-12" style="edgeStyle=orthogonalEdgeStyle;rounded=0;orthogonalLoop=1;jettySize=auto;html=1;exitX=1;exitY=0.5;exitDx=0;exitDy=0;entryX=0.572;entryY=-0.028;entryDx=0;entryDy=0;entryPerimeter=0;" parent="1" source="1gRp-MY8qv1C0Y7Tk_VO-6" target="1gRp-MY8qv1C0Y7Tk_VO-11" edge="1">
          <mxGeometry relative="1" as="geometry" />
        </mxCell>
        <mxCell id="1gRp-MY8qv1C0Y7Tk_VO-13" value="Pasien Baru" style="text;html=1;align=center;verticalAlign=middle;resizable=0;points=[];autosize=1;strokeColor=none;fillColor=none;" parent="1" vertex="1">
          <mxGeometry x="650" y="500" width="90" height="30" as="geometry" />
        </mxCell>
        <mxCell id="1gRp-MY8qv1C0Y7Tk_VO-17" style="edgeStyle=orthogonalEdgeStyle;rounded=0;orthogonalLoop=1;jettySize=auto;html=1;exitX=0;exitY=0.5;exitDx=0;exitDy=0;entryX=0;entryY=0.5;entryDx=0;entryDy=0;" parent="1" source="1gRp-MY8qv1C0Y7Tk_VO-14" target="1gRp-MY8qv1C0Y7Tk_VO-6" edge="1">
          <mxGeometry relative="1" as="geometry">
            <Array as="points">
              <mxPoint x="190" y="740" />
              <mxPoint x="190" y="470" />
            </Array>
          </mxGeometry>
        </mxCell>
        <mxCell id="FW5Xd1j5Xc5Lr_Ik9d4i-3" style="edgeStyle=orthogonalEdgeStyle;rounded=0;orthogonalLoop=1;jettySize=auto;html=1;exitX=0.5;exitY=1;exitDx=0;exitDy=0;entryX=0.5;entryY=0;entryDx=0;entryDy=0;" parent="1" source="1gRp-MY8qv1C0Y7Tk_VO-14" target="FW5Xd1j5Xc5Lr_Ik9d4i-2" edge="1">
          <mxGeometry relative="1" as="geometry" />
        </mxCell>
        <mxCell id="1gRp-MY8qv1C0Y7Tk_VO-14" value="Verif Data" style="rhombus;whiteSpace=wrap;html=1;" parent="1" vertex="1">
          <mxGeometry x="360" y="700" width="80" height="80" as="geometry" />
        </mxCell>
        <mxCell id="1gRp-MY8qv1C0Y7Tk_VO-18" value="Data tidak lengkap / Valid" style="text;html=1;align=center;verticalAlign=middle;resizable=0;points=[];autosize=1;strokeColor=none;fillColor=none;" parent="1" vertex="1">
          <mxGeometry x="230" y="700" width="160" height="30" as="geometry" />
        </mxCell>
        <mxCell id="1gRp-MY8qv1C0Y7Tk_VO-21" value="Data Valid" style="text;html=1;align=center;verticalAlign=middle;resizable=0;points=[];autosize=1;strokeColor=none;fillColor=none;" parent="1" vertex="1">
          <mxGeometry x="430" y="780" width="80" height="30" as="geometry" />
        </mxCell>
        <mxCell id="1gRp-MY8qv1C0Y7Tk_VO-22" value="Selesai" style="ellipse;whiteSpace=wrap;html=1;" parent="1" vertex="1">
          <mxGeometry x="345" y="1450" width="110" height="50" as="geometry" />
        </mxCell>
        <mxCell id="FW5Xd1j5Xc5Lr_Ik9d4i-5" style="edgeStyle=orthogonalEdgeStyle;rounded=0;orthogonalLoop=1;jettySize=auto;html=1;exitX=0.5;exitY=1;exitDx=0;exitDy=0;entryX=0.5;entryY=0;entryDx=0;entryDy=0;" parent="1" source="FW5Xd1j5Xc5Lr_Ik9d4i-2" target="FW5Xd1j5Xc5Lr_Ik9d4i-4" edge="1">
          <mxGeometry relative="1" as="geometry" />
        </mxCell>
        <mxCell id="FW5Xd1j5Xc5Lr_Ik9d4i-2" value="Penyimpanan data pasien&amp;nbsp;" style="rounded=0;whiteSpace=wrap;html=1;" parent="1" vertex="1">
          <mxGeometry x="340" y="840" width="120" height="60" as="geometry" />
        </mxCell>
        <mxCell id="FW5Xd1j5Xc5Lr_Ik9d4i-8" style="edgeStyle=orthogonalEdgeStyle;rounded=0;orthogonalLoop=1;jettySize=auto;html=1;exitX=0.5;exitY=1;exitDx=0;exitDy=0;entryX=0.5;entryY=0;entryDx=0;entryDy=0;" parent="1" source="FW5Xd1j5Xc5Lr_Ik9d4i-4" target="FW5Xd1j5Xc5Lr_Ik9d4i-7" edge="1">
          <mxGeometry relative="1" as="geometry" />
        </mxCell>
        <mxCell id="FW5Xd1j5Xc5Lr_Ik9d4i-4" value="Konfirmasi data pendaftaran berhasil dan menampilkan detail pendaftaran serta nomor antrian" style="shape=parallelogram;perimeter=parallelogramPerimeter;whiteSpace=wrap;html=1;fixedSize=1;" parent="1" vertex="1">
          <mxGeometry x="305" y="970" width="190" height="110" as="geometry" />
        </mxCell>
        <mxCell id="FW5Xd1j5Xc5Lr_Ik9d4i-11" style="edgeStyle=orthogonalEdgeStyle;rounded=0;orthogonalLoop=1;jettySize=auto;html=1;exitX=1;exitY=0.5;exitDx=0;exitDy=0;entryX=0;entryY=0.25;entryDx=0;entryDy=0;" parent="1" source="FW5Xd1j5Xc5Lr_Ik9d4i-7" target="FW5Xd1j5Xc5Lr_Ik9d4i-16" edge="1">
          <mxGeometry relative="1" as="geometry">
            <mxPoint x="595.0000000000005" y="1190" as="targetPoint" />
          </mxGeometry>
        </mxCell>
        <mxCell id="FW5Xd1j5Xc5Lr_Ik9d4i-12" style="edgeStyle=orthogonalEdgeStyle;rounded=0;orthogonalLoop=1;jettySize=auto;html=1;exitX=0.5;exitY=1;exitDx=0;exitDy=0;entryX=0.5;entryY=0;entryDx=0;entryDy=0;" parent="1" source="FW5Xd1j5Xc5Lr_Ik9d4i-7" target="FW5Xd1j5Xc5Lr_Ik9d4i-15" edge="1">
          <mxGeometry relative="1" as="geometry">
            <mxPoint x="400.0000000000002" y="1300" as="targetPoint" />
          </mxGeometry>
        </mxCell>
        <mxCell id="FW5Xd1j5Xc5Lr_Ik9d4i-7" value="Pasien pengguna BPJS?" style="rhombus;whiteSpace=wrap;html=1;" parent="1" vertex="1">
          <mxGeometry x="360" y="1150" width="80" height="80" as="geometry" />
        </mxCell>
        <mxCell id="FW5Xd1j5Xc5Lr_Ik9d4i-13" style="edgeStyle=orthogonalEdgeStyle;rounded=0;orthogonalLoop=1;jettySize=auto;html=1;exitX=0.5;exitY=1;exitDx=0;exitDy=0;entryX=0.5;entryY=0;entryDx=0;entryDy=0;" parent="1" source="FW5Xd1j5Xc5Lr_Ik9d4i-15" target="1gRp-MY8qv1C0Y7Tk_VO-22" edge="1">
          <mxGeometry relative="1" as="geometry">
            <mxPoint x="400.0000000000002" y="1360" as="sourcePoint" />
          </mxGeometry>
        </mxCell>
        <mxCell id="FW5Xd1j5Xc5Lr_Ik9d4i-14" style="edgeStyle=orthogonalEdgeStyle;rounded=0;orthogonalLoop=1;jettySize=auto;html=1;exitX=0.5;exitY=1;exitDx=0;exitDy=0;entryX=1;entryY=0.5;entryDx=0;entryDy=0;" parent="1" source="FW5Xd1j5Xc5Lr_Ik9d4i-16" target="1gRp-MY8qv1C0Y7Tk_VO-22" edge="1">
          <mxGeometry relative="1" as="geometry">
            <mxPoint x="645.0000000000005" y="1220" as="sourcePoint" />
          </mxGeometry>
        </mxCell>
        <mxCell id="FW5Xd1j5Xc5Lr_Ik9d4i-15" value="Registrasi ulang di loket" style="verticalLabelPosition=middle;verticalAlign=middle;html=1;shape=trapezoid;perimeter=trapezoidPerimeter;whiteSpace=wrap;size=0.23;arcSize=10;flipV=1;labelPosition=center;align=center;" parent="1" vertex="1">
          <mxGeometry x="350" y="1310" width="100" height="60" as="geometry" />
        </mxCell>
        <mxCell id="FW5Xd1j5Xc5Lr_Ik9d4i-16" value="Registrasi ulang di mesin APM" style="verticalLabelPosition=middle;verticalAlign=middle;html=1;shape=trapezoid;perimeter=trapezoidPerimeter;whiteSpace=wrap;size=0.23;arcSize=10;flipV=1;labelPosition=center;align=center;" parent="1" vertex="1">
          <mxGeometry x="610" y="1173" width="100" height="60" as="geometry" />
        </mxCell>
      </root>
    </mxGraphModel>
  </diagram>
  <diagram id="mKCYznzTGTRhhWZirEYE" name="DFD LEVEL 0">
    <mxGraphModel dx="880" dy="446" grid="1" gridSize="10" guides="1" tooltips="1" connect="1" arrows="1" fold="1" page="1" pageScale="1" pageWidth="827" pageHeight="1169" math="0" shadow="0">
      <root>
        <mxCell id="0" />
        <mxCell id="1" parent="0" />
        <mxCell id="ua0sjtjSn8d3hObgfGaN-8" style="edgeStyle=orthogonalEdgeStyle;rounded=0;orthogonalLoop=1;jettySize=auto;html=1;exitX=1;exitY=0.5;exitDx=0;exitDy=0;entryX=0;entryY=0.5;entryDx=0;entryDy=0;" parent="1" source="ua0sjtjSn8d3hObgfGaN-2" target="ua0sjtjSn8d3hObgfGaN-6" edge="1">
          <mxGeometry relative="1" as="geometry" />
        </mxCell>
        <mxCell id="ua0sjtjSn8d3hObgfGaN-9" style="edgeStyle=orthogonalEdgeStyle;rounded=0;orthogonalLoop=1;jettySize=auto;html=1;exitX=0;exitY=0.5;exitDx=0;exitDy=0;entryX=1;entryY=0.5;entryDx=0;entryDy=0;" parent="1" source="ua0sjtjSn8d3hObgfGaN-2" target="ua0sjtjSn8d3hObgfGaN-3" edge="1">
          <mxGeometry relative="1" as="geometry" />
        </mxCell>
        <mxCell id="ua0sjtjSn8d3hObgfGaN-11" style="edgeStyle=orthogonalEdgeStyle;rounded=0;orthogonalLoop=1;jettySize=auto;html=1;exitX=0.5;exitY=1;exitDx=0;exitDy=0;entryX=0.5;entryY=0;entryDx=0;entryDy=0;" parent="1" source="ua0sjtjSn8d3hObgfGaN-2" target="ua0sjtjSn8d3hObgfGaN-5" edge="1">
          <mxGeometry relative="1" as="geometry" />
        </mxCell>
        <mxCell id="ua0sjtjSn8d3hObgfGaN-2" value="Sistem Pendaftaran Web KlinikGo" style="ellipse;whiteSpace=wrap;html=1;aspect=fixed;" parent="1" vertex="1">
          <mxGeometry x="350" y="60" width="160" height="160" as="geometry" />
        </mxCell>
        <mxCell id="ua0sjtjSn8d3hObgfGaN-3" value="Pasien" style="rounded=0;whiteSpace=wrap;html=1;" parent="1" vertex="1">
          <mxGeometry x="60" y="110" width="120" height="60" as="geometry" />
        </mxCell>
        <mxCell id="ua0sjtjSn8d3hObgfGaN-5" value="Dokter" style="rounded=0;whiteSpace=wrap;html=1;" parent="1" vertex="1">
          <mxGeometry x="370" y="320" width="120" height="60" as="geometry" />
        </mxCell>
        <mxCell id="ua0sjtjSn8d3hObgfGaN-6" value="Admin" style="rounded=0;whiteSpace=wrap;html=1;" parent="1" vertex="1">
          <mxGeometry x="690" y="110" width="120" height="60" as="geometry" />
        </mxCell>
        <mxCell id="ua0sjtjSn8d3hObgfGaN-7" style="edgeStyle=orthogonalEdgeStyle;rounded=0;orthogonalLoop=1;jettySize=auto;html=1;exitX=0;exitY=0.25;exitDx=0;exitDy=0;entryX=1;entryY=0.406;entryDx=0;entryDy=0;entryPerimeter=0;" parent="1" source="ua0sjtjSn8d3hObgfGaN-6" target="ua0sjtjSn8d3hObgfGaN-2" edge="1">
          <mxGeometry relative="1" as="geometry" />
        </mxCell>
        <mxCell id="ua0sjtjSn8d3hObgfGaN-10" style="edgeStyle=orthogonalEdgeStyle;rounded=0;orthogonalLoop=1;jettySize=auto;html=1;exitX=1;exitY=0.25;exitDx=0;exitDy=0;entryX=-0.006;entryY=0.406;entryDx=0;entryDy=0;entryPerimeter=0;" parent="1" source="ua0sjtjSn8d3hObgfGaN-3" target="ua0sjtjSn8d3hObgfGaN-2" edge="1">
          <mxGeometry relative="1" as="geometry" />
        </mxCell>
        <mxCell id="ua0sjtjSn8d3hObgfGaN-12" style="edgeStyle=orthogonalEdgeStyle;rounded=0;orthogonalLoop=1;jettySize=auto;html=1;exitX=0.375;exitY=-0.017;exitDx=0;exitDy=0;entryX=0.406;entryY=1.006;entryDx=0;entryDy=0;entryPerimeter=0;exitPerimeter=0;" parent="1" source="ua0sjtjSn8d3hObgfGaN-5" target="ua0sjtjSn8d3hObgfGaN-2" edge="1">
          <mxGeometry relative="1" as="geometry" />
        </mxCell>
        <mxCell id="ua0sjtjSn8d3hObgfGaN-13" value="Login" style="text;html=1;align=center;verticalAlign=middle;resizable=0;points=[];autosize=1;strokeColor=none;fillColor=none;" parent="1" vertex="1">
          <mxGeometry x="550" y="90" width="50" height="30" as="geometry" />
        </mxCell>
        <mxCell id="ua0sjtjSn8d3hObgfGaN-14" value="Login" style="text;html=1;align=center;verticalAlign=middle;resizable=0;points=[];autosize=1;strokeColor=none;fillColor=none;" parent="1" vertex="1">
          <mxGeometry x="360" y="260" width="50" height="30" as="geometry" />
        </mxCell>
        <mxCell id="ua0sjtjSn8d3hObgfGaN-15" value="Pendaftaran" style="text;html=1;align=center;verticalAlign=middle;resizable=0;points=[];autosize=1;strokeColor=none;fillColor=none;" parent="1" vertex="1">
          <mxGeometry x="235" y="88" width="90" height="30" as="geometry" />
        </mxCell>
        <mxCell id="ua0sjtjSn8d3hObgfGaN-16" value="Informasi no antrian" style="text;html=1;align=center;verticalAlign=middle;resizable=0;points=[];autosize=1;strokeColor=none;fillColor=none;" parent="1" vertex="1">
          <mxGeometry x="215" y="138" width="130" height="30" as="geometry" />
        </mxCell>
        <mxCell id="ua0sjtjSn8d3hObgfGaN-17" value="Data pendaftar&lt;br&gt;Data antrian" style="text;html=1;align=center;verticalAlign=middle;resizable=0;points=[];autosize=1;strokeColor=none;fillColor=none;" parent="1" vertex="1">
          <mxGeometry x="440" y="243" width="100" height="40" as="geometry" />
        </mxCell>
        <mxCell id="ua0sjtjSn8d3hObgfGaN-18" value="Kelola data Dokter&lt;br&gt;Kelola data jadwal&lt;br&gt;Kelola data pendaftaran" style="text;html=1;align=center;verticalAlign=middle;resizable=0;points=[];autosize=1;strokeColor=none;fillColor=none;" parent="1" vertex="1">
          <mxGeometry x="520" y="143" width="150" height="60" as="geometry" />
        </mxCell>
      </root>
    </mxGraphModel>
  </diagram>
  <diagram id="H6JVEV0lB9DPv6BvkwJJ" name="USE CASE DIAGRAM">
    <mxGraphModel dx="926" dy="469" grid="1" gridSize="10" guides="1" tooltips="1" connect="1" arrows="1" fold="1" page="1" pageScale="1" pageWidth="827" pageHeight="1169" math="0" shadow="0">
      <root>
        <mxCell id="0" />
        <mxCell id="1" parent="0" />
        <mxCell id="cZGEUkdCq-SfKHULXSyo-10" style="edgeStyle=none;rounded=0;orthogonalLoop=1;jettySize=auto;html=1;exitX=0.5;exitY=0.5;exitDx=0;exitDy=0;exitPerimeter=0;entryX=0;entryY=0.5;entryDx=0;entryDy=0;" parent="1" source="cZGEUkdCq-SfKHULXSyo-1" target="cZGEUkdCq-SfKHULXSyo-6" edge="1">
          <mxGeometry relative="1" as="geometry" />
        </mxCell>
        <mxCell id="cZGEUkdCq-SfKHULXSyo-1" value="Pasien" style="shape=umlActor;verticalLabelPosition=bottom;verticalAlign=top;html=1;outlineConnect=0;" parent="1" vertex="1">
          <mxGeometry x="200" y="160" width="30" height="60" as="geometry" />
        </mxCell>
        <mxCell id="cZGEUkdCq-SfKHULXSyo-12" style="edgeStyle=none;rounded=0;orthogonalLoop=1;jettySize=auto;html=1;exitX=0;exitY=0.3333333333333333;exitDx=0;exitDy=0;exitPerimeter=0;entryX=1;entryY=1;entryDx=0;entryDy=0;" parent="1" source="cZGEUkdCq-SfKHULXSyo-2" target="cZGEUkdCq-SfKHULXSyo-6" edge="1">
          <mxGeometry relative="1" as="geometry" />
        </mxCell>
        <mxCell id="Y23Ug1IolE9c_JfN1RUO-1" style="rounded=0;orthogonalLoop=1;jettySize=auto;html=1;exitX=0;exitY=0.3333333333333333;exitDx=0;exitDy=0;exitPerimeter=0;entryX=1;entryY=0.5;entryDx=0;entryDy=0;" edge="1" parent="1" source="cZGEUkdCq-SfKHULXSyo-2" target="cZGEUkdCq-SfKHULXSyo-13">
          <mxGeometry relative="1" as="geometry" />
        </mxCell>
        <mxCell id="prNQ8gVtRBdzzoUEtMPD-1" style="rounded=0;orthogonalLoop=1;jettySize=auto;html=1;exitX=0;exitY=0.3333333333333333;exitDx=0;exitDy=0;exitPerimeter=0;entryX=1;entryY=0.5;entryDx=0;entryDy=0;" edge="1" parent="1" source="cZGEUkdCq-SfKHULXSyo-2" target="cZGEUkdCq-SfKHULXSyo-14">
          <mxGeometry relative="1" as="geometry" />
        </mxCell>
        <mxCell id="cZGEUkdCq-SfKHULXSyo-2" value="Dokter" style="shape=umlActor;verticalLabelPosition=bottom;verticalAlign=top;html=1;outlineConnect=0;" parent="1" vertex="1">
          <mxGeometry x="640" y="370" width="30" height="60" as="geometry" />
        </mxCell>
        <mxCell id="cZGEUkdCq-SfKHULXSyo-11" style="edgeStyle=none;rounded=0;orthogonalLoop=1;jettySize=auto;html=1;exitX=0.5;exitY=0.5;exitDx=0;exitDy=0;exitPerimeter=0;entryX=1;entryY=0.5;entryDx=0;entryDy=0;" parent="1" source="cZGEUkdCq-SfKHULXSyo-4" target="cZGEUkdCq-SfKHULXSyo-6" edge="1">
          <mxGeometry relative="1" as="geometry" />
        </mxCell>
        <mxCell id="Y23Ug1IolE9c_JfN1RUO-2" style="rounded=0;orthogonalLoop=1;jettySize=auto;html=1;exitX=0.5;exitY=0.5;exitDx=0;exitDy=0;exitPerimeter=0;entryX=1;entryY=0.5;entryDx=0;entryDy=0;" edge="1" parent="1" source="cZGEUkdCq-SfKHULXSyo-4" target="cZGEUkdCq-SfKHULXSyo-14">
          <mxGeometry relative="1" as="geometry" />
        </mxCell>
        <mxCell id="cZGEUkdCq-SfKHULXSyo-4" value="Admin" style="shape=umlActor;verticalLabelPosition=bottom;verticalAlign=top;html=1;outlineConnect=0;" parent="1" vertex="1">
          <mxGeometry x="640" y="170" width="30" height="60" as="geometry" />
        </mxCell>
        <mxCell id="cZGEUkdCq-SfKHULXSyo-6" value="Registrasi / Login" style="ellipse;whiteSpace=wrap;html=1;" parent="1" vertex="1">
          <mxGeometry x="370" y="80" width="140" height="70" as="geometry" />
        </mxCell>
        <mxCell id="cZGEUkdCq-SfKHULXSyo-13" value="Data Pendaftar / Pasien" style="ellipse;whiteSpace=wrap;html=1;" parent="1" vertex="1">
          <mxGeometry x="370" y="180" width="140" height="70" as="geometry" />
        </mxCell>
        <mxCell id="cZGEUkdCq-SfKHULXSyo-14" value="Jadwal dan data Dokter" style="ellipse;whiteSpace=wrap;html=1;" parent="1" vertex="1">
          <mxGeometry x="370" y="280" width="140" height="70" as="geometry" />
        </mxCell>
        <mxCell id="Y23Ug1IolE9c_JfN1RUO-4" value="Info detail pendaftaran dan nomor antrian" style="ellipse;whiteSpace=wrap;html=1;" vertex="1" parent="1">
          <mxGeometry x="370" y="380" width="140" height="70" as="geometry" />
        </mxCell>
        <mxCell id="Y23Ug1IolE9c_JfN1RUO-5" style="rounded=0;orthogonalLoop=1;jettySize=auto;html=1;exitX=0;exitY=0.5;exitDx=0;exitDy=0;entryX=0.5;entryY=0.5;entryDx=0;entryDy=0;entryPerimeter=0;" edge="1" parent="1" source="Y23Ug1IolE9c_JfN1RUO-4" target="cZGEUkdCq-SfKHULXSyo-1">
          <mxGeometry relative="1" as="geometry" />
        </mxCell>
        <mxCell id="prNQ8gVtRBdzzoUEtMPD-2" style="rounded=0;orthogonalLoop=1;jettySize=auto;html=1;exitX=0.5;exitY=0.5;exitDx=0;exitDy=0;exitPerimeter=0;entryX=1.007;entryY=0.414;entryDx=0;entryDy=0;entryPerimeter=0;" edge="1" parent="1" source="cZGEUkdCq-SfKHULXSyo-4" target="Y23Ug1IolE9c_JfN1RUO-4">
          <mxGeometry relative="1" as="geometry" />
        </mxCell>
      </root>
    </mxGraphModel>
  </diagram>
  <diagram id="twqreSmyU-m4MXsXkJ3H" name="ACTIVITY DIAGRAM">
    <mxGraphModel dx="677" dy="343" grid="1" gridSize="10" guides="1" tooltips="1" connect="1" arrows="1" fold="1" page="1" pageScale="1" pageWidth="827" pageHeight="1169" math="0" shadow="0">
      <root>
        <mxCell id="0" />
        <mxCell id="1" parent="0" />
        <mxCell id="s5QIqNJrrDtRFEgiiAWd-1" value="Activity Diagram Pendaftaran Pasien" style="swimlane;childLayout=stackLayout;resizeParent=1;resizeParentMax=0;startSize=20;html=1;" vertex="1" parent="1">
          <mxGeometry x="220.00000000000045" y="23" width="380" height="720" as="geometry" />
        </mxCell>
        <mxCell id="s5QIqNJrrDtRFEgiiAWd-2" value="Pasien" style="swimlane;startSize=20;html=1;" vertex="1" parent="s5QIqNJrrDtRFEgiiAWd-1">
          <mxGeometry y="20" width="180" height="700" as="geometry" />
        </mxCell>
        <mxCell id="s5QIqNJrrDtRFEgiiAWd-16" style="edgeStyle=orthogonalEdgeStyle;rounded=0;orthogonalLoop=1;jettySize=auto;html=1;exitX=0.5;exitY=1;exitDx=0;exitDy=0;entryX=0.5;entryY=0;entryDx=0;entryDy=0;" edge="1" parent="s5QIqNJrrDtRFEgiiAWd-2" source="s5QIqNJrrDtRFEgiiAWd-6" target="s5QIqNJrrDtRFEgiiAWd-7">
          <mxGeometry relative="1" as="geometry" />
        </mxCell>
        <mxCell id="s5QIqNJrrDtRFEgiiAWd-6" value="" style="ellipse;html=1;shape=endState;fillColor=#000000;strokeColor=#ff0000;" vertex="1" parent="s5QIqNJrrDtRFEgiiAWd-2">
          <mxGeometry x="80" y="35" width="20" height="20" as="geometry" />
        </mxCell>
        <mxCell id="s5QIqNJrrDtRFEgiiAWd-7" value="&lt;font style=&quot;font-size: 9px;&quot;&gt;Input username &amp;amp; password&lt;/font&gt;" style="rounded=1;whiteSpace=wrap;html=1;" vertex="1" parent="s5QIqNJrrDtRFEgiiAWd-2">
          <mxGeometry x="42.5" y="85" width="95" height="30" as="geometry" />
        </mxCell>
        <mxCell id="s5QIqNJrrDtRFEgiiAWd-18" value="&lt;font style=&quot;font-size: 9px;&quot;&gt;Pilih pendaftaran / rujukan&lt;/font&gt;" style="rounded=1;whiteSpace=wrap;html=1;" vertex="1" parent="s5QIqNJrrDtRFEgiiAWd-2">
          <mxGeometry x="42.5" y="216" width="95" height="30" as="geometry" />
        </mxCell>
        <mxCell id="knzyoxZAcHQNy8h0drKn-8" style="edgeStyle=orthogonalEdgeStyle;rounded=0;orthogonalLoop=1;jettySize=auto;html=1;exitX=0.5;exitY=1;exitDx=0;exitDy=0;entryX=0.5;entryY=0;entryDx=0;entryDy=0;" edge="1" parent="s5QIqNJrrDtRFEgiiAWd-2" source="knzyoxZAcHQNy8h0drKn-4" target="knzyoxZAcHQNy8h0drKn-7">
          <mxGeometry relative="1" as="geometry" />
        </mxCell>
        <mxCell id="knzyoxZAcHQNy8h0drKn-4" value="&lt;font style=&quot;font-size: 8px;&quot;&gt;Mendapatkan nomor antrian&lt;/font&gt;" style="rounded=1;whiteSpace=wrap;html=1;" vertex="1" parent="s5QIqNJrrDtRFEgiiAWd-2">
          <mxGeometry x="42.5" y="603" width="95" height="30" as="geometry" />
        </mxCell>
        <mxCell id="knzyoxZAcHQNy8h0drKn-7" value="" style="ellipse;html=1;shape=endState;fillColor=#000000;strokeColor=#ff0000;" vertex="1" parent="s5QIqNJrrDtRFEgiiAWd-2">
          <mxGeometry x="80" y="657" width="20" height="20" as="geometry" />
        </mxCell>
        <mxCell id="an3m6vKeVYkly7mmOhL6-2" value="&lt;font style=&quot;font-size: 8px;&quot;&gt;Pilih dokter dan waktu kunjungan serta no WA&lt;/font&gt;" style="rounded=1;whiteSpace=wrap;html=1;" vertex="1" parent="s5QIqNJrrDtRFEgiiAWd-2">
          <mxGeometry x="40" y="357" width="95" height="30" as="geometry" />
        </mxCell>
        <mxCell id="s5QIqNJrrDtRFEgiiAWd-3" value="System" style="swimlane;startSize=20;html=1;" vertex="1" parent="s5QIqNJrrDtRFEgiiAWd-1">
          <mxGeometry x="180" y="20" width="200" height="700" as="geometry" />
        </mxCell>
        <mxCell id="s5QIqNJrrDtRFEgiiAWd-9" value="&lt;font style=&quot;font-size: 9px;&quot;&gt;Verifikasi login&lt;/font&gt;" style="rounded=1;whiteSpace=wrap;html=1;" vertex="1" parent="s5QIqNJrrDtRFEgiiAWd-3">
          <mxGeometry x="27.5" y="85" width="95" height="30" as="geometry" />
        </mxCell>
        <mxCell id="s5QIqNJrrDtRFEgiiAWd-19" style="edgeStyle=orthogonalEdgeStyle;rounded=0;orthogonalLoop=1;jettySize=auto;html=1;exitX=0.5;exitY=1;exitDx=0;exitDy=0;entryX=0.5;entryY=0;entryDx=0;entryDy=0;" edge="1" parent="s5QIqNJrrDtRFEgiiAWd-3" source="s5QIqNJrrDtRFEgiiAWd-11" target="s5QIqNJrrDtRFEgiiAWd-17">
          <mxGeometry relative="1" as="geometry" />
        </mxCell>
        <mxCell id="s5QIqNJrrDtRFEgiiAWd-11" value="" style="rhombus;whiteSpace=wrap;html=1;" vertex="1" parent="s5QIqNJrrDtRFEgiiAWd-3">
          <mxGeometry x="50" y="157" width="50" height="43" as="geometry" />
        </mxCell>
        <mxCell id="s5QIqNJrrDtRFEgiiAWd-12" style="edgeStyle=orthogonalEdgeStyle;rounded=0;orthogonalLoop=1;jettySize=auto;html=1;exitX=0.5;exitY=1;exitDx=0;exitDy=0;entryX=0.5;entryY=0;entryDx=0;entryDy=0;" edge="1" parent="s5QIqNJrrDtRFEgiiAWd-3" source="s5QIqNJrrDtRFEgiiAWd-9" target="s5QIqNJrrDtRFEgiiAWd-11">
          <mxGeometry relative="1" as="geometry" />
        </mxCell>
        <mxCell id="s5QIqNJrrDtRFEgiiAWd-14" value="&lt;font style=&quot;font-size: 9px;&quot;&gt;Salah&lt;/font&gt;" style="text;html=1;align=center;verticalAlign=middle;resizable=0;points=[];autosize=1;strokeColor=none;fillColor=none;" vertex="1" parent="s5QIqNJrrDtRFEgiiAWd-3">
          <mxGeometry x="-4.547473508864641e-13" y="147" width="50" height="30" as="geometry" />
        </mxCell>
        <mxCell id="s5QIqNJrrDtRFEgiiAWd-17" value="&lt;font style=&quot;font-size: 9px;&quot;&gt;Menampilkan halaman Pasien&lt;/font&gt;" style="rounded=1;whiteSpace=wrap;html=1;" vertex="1" parent="s5QIqNJrrDtRFEgiiAWd-3">
          <mxGeometry x="27.5" y="217" width="95" height="30" as="geometry" />
        </mxCell>
        <mxCell id="s5QIqNJrrDtRFEgiiAWd-21" value="&lt;font style=&quot;font-size: 8px;&quot;&gt;Menampilkan form pendaftaran pasien Baru&lt;/font&gt;" style="rounded=1;whiteSpace=wrap;html=1;" vertex="1" parent="s5QIqNJrrDtRFEgiiAWd-3">
          <mxGeometry x="27.5" y="357" width="95" height="30" as="geometry" />
        </mxCell>
        <mxCell id="UFVIZ9bHJuh2j-1UiAM_-3" style="edgeStyle=orthogonalEdgeStyle;rounded=0;orthogonalLoop=1;jettySize=auto;html=1;exitX=0.5;exitY=1;exitDx=0;exitDy=0;entryX=0.5;entryY=0;entryDx=0;entryDy=0;" edge="1" parent="s5QIqNJrrDtRFEgiiAWd-3" source="UFVIZ9bHJuh2j-1UiAM_-1" target="s5QIqNJrrDtRFEgiiAWd-21">
          <mxGeometry relative="1" as="geometry" />
        </mxCell>
        <mxCell id="UFVIZ9bHJuh2j-1UiAM_-5" style="edgeStyle=orthogonalEdgeStyle;rounded=0;orthogonalLoop=1;jettySize=auto;html=1;exitX=1;exitY=0.5;exitDx=0;exitDy=0;" edge="1" parent="s5QIqNJrrDtRFEgiiAWd-3" source="UFVIZ9bHJuh2j-1UiAM_-1" target="UFVIZ9bHJuh2j-1UiAM_-4">
          <mxGeometry relative="1" as="geometry" />
        </mxCell>
        <mxCell id="UFVIZ9bHJuh2j-1UiAM_-1" value="" style="rhombus;whiteSpace=wrap;html=1;" vertex="1" parent="s5QIqNJrrDtRFEgiiAWd-3">
          <mxGeometry x="50" y="277" width="50" height="43" as="geometry" />
        </mxCell>
        <mxCell id="UFVIZ9bHJuh2j-1UiAM_-4" value="&lt;font style=&quot;font-size: 8px;&quot;&gt;Menampilkan form pendaftaran pasien Lama&lt;/font&gt;" style="rounded=1;whiteSpace=wrap;html=1;" vertex="1" parent="s5QIqNJrrDtRFEgiiAWd-3">
          <mxGeometry x="80" y="407" width="95" height="30" as="geometry" />
        </mxCell>
        <mxCell id="UFVIZ9bHJuh2j-1UiAM_-7" value="&lt;font style=&quot;font-size: 9px;&quot;&gt;Lama&lt;/font&gt;" style="text;html=1;align=center;verticalAlign=middle;resizable=0;points=[];autosize=1;strokeColor=none;fillColor=none;" vertex="1" parent="s5QIqNJrrDtRFEgiiAWd-3">
          <mxGeometry x="122.49999999999955" y="357" width="50" height="30" as="geometry" />
        </mxCell>
        <mxCell id="Xw9EewDSNI2xmOJA-1So-2" style="edgeStyle=orthogonalEdgeStyle;rounded=0;orthogonalLoop=1;jettySize=auto;html=1;exitX=0.5;exitY=1;exitDx=0;exitDy=0;entryX=0.5;entryY=0;entryDx=0;entryDy=0;" edge="1" parent="s5QIqNJrrDtRFEgiiAWd-3" source="UFVIZ9bHJuh2j-1UiAM_-8" target="Xw9EewDSNI2xmOJA-1So-1">
          <mxGeometry relative="1" as="geometry" />
        </mxCell>
        <mxCell id="Xw9EewDSNI2xmOJA-1So-3" style="edgeStyle=orthogonalEdgeStyle;rounded=0;orthogonalLoop=1;jettySize=auto;html=1;exitX=1;exitY=0.5;exitDx=0;exitDy=0;entryX=1;entryY=0.5;entryDx=0;entryDy=0;" edge="1" parent="s5QIqNJrrDtRFEgiiAWd-3" source="UFVIZ9bHJuh2j-1UiAM_-8" target="UFVIZ9bHJuh2j-1UiAM_-1">
          <mxGeometry relative="1" as="geometry">
            <Array as="points">
              <mxPoint x="180" y="499" />
              <mxPoint x="180" y="299" />
            </Array>
          </mxGeometry>
        </mxCell>
        <mxCell id="UFVIZ9bHJuh2j-1UiAM_-8" value="&lt;font style=&quot;font-size: 8px;&quot;&gt;Data valid ?&lt;/font&gt;" style="rhombus;whiteSpace=wrap;html=1;" vertex="1" parent="s5QIqNJrrDtRFEgiiAWd-3">
          <mxGeometry x="60" y="477" width="50" height="43" as="geometry" />
        </mxCell>
        <mxCell id="knzyoxZAcHQNy8h0drKn-3" style="edgeStyle=orthogonalEdgeStyle;rounded=0;orthogonalLoop=1;jettySize=auto;html=1;exitX=0.5;exitY=1;exitDx=0;exitDy=0;entryX=0.5;entryY=0;entryDx=0;entryDy=0;" edge="1" parent="s5QIqNJrrDtRFEgiiAWd-3" source="Xw9EewDSNI2xmOJA-1So-1" target="knzyoxZAcHQNy8h0drKn-2">
          <mxGeometry relative="1" as="geometry" />
        </mxCell>
        <mxCell id="Xw9EewDSNI2xmOJA-1So-1" value="&lt;font style=&quot;font-size: 8px;&quot;&gt;Menyimpan data&lt;/font&gt;" style="rounded=1;whiteSpace=wrap;html=1;" vertex="1" parent="s5QIqNJrrDtRFEgiiAWd-3">
          <mxGeometry x="37.5" y="547" width="95" height="30" as="geometry" />
        </mxCell>
        <mxCell id="knzyoxZAcHQNy8h0drKn-2" value="&lt;font style=&quot;font-size: 7px;&quot;&gt;Menampilkan konfirmasi pendaftaran &amp;amp; detail data pendaftaran&lt;/font&gt;" style="rounded=1;whiteSpace=wrap;html=1;" vertex="1" parent="s5QIqNJrrDtRFEgiiAWd-3">
          <mxGeometry x="37.5" y="597" width="95" height="43" as="geometry" />
        </mxCell>
        <mxCell id="s5QIqNJrrDtRFEgiiAWd-10" style="edgeStyle=orthogonalEdgeStyle;rounded=0;orthogonalLoop=1;jettySize=auto;html=1;exitX=1;exitY=0.5;exitDx=0;exitDy=0;" edge="1" parent="s5QIqNJrrDtRFEgiiAWd-1" source="s5QIqNJrrDtRFEgiiAWd-7" target="s5QIqNJrrDtRFEgiiAWd-9">
          <mxGeometry relative="1" as="geometry" />
        </mxCell>
        <mxCell id="s5QIqNJrrDtRFEgiiAWd-13" style="edgeStyle=orthogonalEdgeStyle;rounded=0;orthogonalLoop=1;jettySize=auto;html=1;exitX=0;exitY=0.5;exitDx=0;exitDy=0;entryX=0.5;entryY=1;entryDx=0;entryDy=0;" edge="1" parent="s5QIqNJrrDtRFEgiiAWd-1" source="s5QIqNJrrDtRFEgiiAWd-11" target="s5QIqNJrrDtRFEgiiAWd-7">
          <mxGeometry relative="1" as="geometry" />
        </mxCell>
        <mxCell id="s5QIqNJrrDtRFEgiiAWd-20" style="edgeStyle=orthogonalEdgeStyle;rounded=0;orthogonalLoop=1;jettySize=auto;html=1;exitX=0;exitY=0.5;exitDx=0;exitDy=0;entryX=1;entryY=0.5;entryDx=0;entryDy=0;" edge="1" parent="s5QIqNJrrDtRFEgiiAWd-1" source="s5QIqNJrrDtRFEgiiAWd-17" target="s5QIqNJrrDtRFEgiiAWd-18">
          <mxGeometry relative="1" as="geometry" />
        </mxCell>
        <mxCell id="UFVIZ9bHJuh2j-1UiAM_-2" style="edgeStyle=orthogonalEdgeStyle;rounded=0;orthogonalLoop=1;jettySize=auto;html=1;exitX=0.5;exitY=1;exitDx=0;exitDy=0;entryX=0;entryY=0.5;entryDx=0;entryDy=0;" edge="1" parent="s5QIqNJrrDtRFEgiiAWd-1" source="s5QIqNJrrDtRFEgiiAWd-18" target="UFVIZ9bHJuh2j-1UiAM_-1">
          <mxGeometry relative="1" as="geometry" />
        </mxCell>
        <mxCell id="knzyoxZAcHQNy8h0drKn-5" style="edgeStyle=orthogonalEdgeStyle;rounded=0;orthogonalLoop=1;jettySize=auto;html=1;exitX=0;exitY=0.5;exitDx=0;exitDy=0;entryX=1;entryY=0.5;entryDx=0;entryDy=0;" edge="1" parent="s5QIqNJrrDtRFEgiiAWd-1" source="knzyoxZAcHQNy8h0drKn-2" target="knzyoxZAcHQNy8h0drKn-4">
          <mxGeometry relative="1" as="geometry" />
        </mxCell>
        <mxCell id="an3m6vKeVYkly7mmOhL6-3" style="edgeStyle=orthogonalEdgeStyle;rounded=0;orthogonalLoop=1;jettySize=auto;html=1;exitX=0;exitY=0.5;exitDx=0;exitDy=0;entryX=1;entryY=0.5;entryDx=0;entryDy=0;" edge="1" parent="s5QIqNJrrDtRFEgiiAWd-1" source="s5QIqNJrrDtRFEgiiAWd-21" target="an3m6vKeVYkly7mmOhL6-2">
          <mxGeometry relative="1" as="geometry" />
        </mxCell>
        <mxCell id="an3m6vKeVYkly7mmOhL6-4" style="edgeStyle=orthogonalEdgeStyle;rounded=0;orthogonalLoop=1;jettySize=auto;html=1;exitX=0;exitY=0.5;exitDx=0;exitDy=0;entryX=1;entryY=0.5;entryDx=0;entryDy=0;" edge="1" parent="s5QIqNJrrDtRFEgiiAWd-1" source="UFVIZ9bHJuh2j-1UiAM_-4" target="an3m6vKeVYkly7mmOhL6-2">
          <mxGeometry relative="1" as="geometry" />
        </mxCell>
        <mxCell id="an3m6vKeVYkly7mmOhL6-5" style="edgeStyle=orthogonalEdgeStyle;rounded=0;orthogonalLoop=1;jettySize=auto;html=1;exitX=0.5;exitY=1;exitDx=0;exitDy=0;entryX=0.5;entryY=0;entryDx=0;entryDy=0;" edge="1" parent="s5QIqNJrrDtRFEgiiAWd-1" source="an3m6vKeVYkly7mmOhL6-2" target="UFVIZ9bHJuh2j-1UiAM_-8">
          <mxGeometry relative="1" as="geometry">
            <Array as="points">
              <mxPoint x="88" y="467" />
              <mxPoint x="265" y="467" />
            </Array>
          </mxGeometry>
        </mxCell>
        <mxCell id="UFVIZ9bHJuh2j-1UiAM_-6" value="&lt;font style=&quot;font-size: 9px;&quot;&gt;Baru&lt;/font&gt;" style="text;html=1;align=center;verticalAlign=middle;resizable=0;points=[];autosize=1;strokeColor=none;fillColor=none;" vertex="1" parent="1">
          <mxGeometry x="470" y="368" width="40" height="30" as="geometry" />
        </mxCell>
        <mxCell id="an3m6vKeVYkly7mmOhL6-1" value="pilih dokter, pilih waktu kunjungan" style="text;html=1;align=center;verticalAlign=middle;resizable=0;points=[];autosize=1;strokeColor=none;fillColor=none;" vertex="1" parent="1">
          <mxGeometry x="570" y="338" width="200" height="30" as="geometry" />
        </mxCell>
      </root>
    </mxGraphModel>
  </diagram>
  <diagram id="Q8ydfbCZaB72jVwE9NmM" name="SEQUANCE DIAGRAM">
    <mxGraphModel dx="1035" dy="525" grid="1" gridSize="10" guides="1" tooltips="1" connect="1" arrows="1" fold="1" page="1" pageScale="1" pageWidth="827" pageHeight="1169" math="0" shadow="0">
      <root>
        <mxCell id="0" />
        <mxCell id="1" parent="0" />
        <mxCell id="Ro-iEzOa7eVVy1Xlv3ne-2" value="Pasien" style="shape=umlLifeline;perimeter=lifelinePerimeter;whiteSpace=wrap;html=1;container=1;dropTarget=0;collapsible=0;recursiveResize=0;outlineConnect=0;portConstraint=eastwest;newEdgeStyle={&quot;curved&quot;:0,&quot;rounded&quot;:0};participant=umlActor;" vertex="1" parent="1">
          <mxGeometry x="159" y="70" width="20" height="300" as="geometry" />
        </mxCell>
        <mxCell id="Ro-iEzOa7eVVy1Xlv3ne-3" value="Login" style="shape=umlLifeline;perimeter=lifelinePerimeter;whiteSpace=wrap;html=1;container=1;dropTarget=0;collapsible=0;recursiveResize=0;outlineConnect=0;portConstraint=eastwest;newEdgeStyle={&quot;curved&quot;:0,&quot;rounded&quot;:0};" vertex="1" parent="1">
          <mxGeometry x="243" y="70" width="100" height="300" as="geometry" />
        </mxCell>
        <mxCell id="Ro-iEzOa7eVVy1Xlv3ne-9" value="" style="html=1;points=[[0,0,0,0,5],[0,1,0,0,-5],[1,0,0,0,5],[1,1,0,0,-5]];perimeter=orthogonalPerimeter;outlineConnect=0;targetShapes=umlLifeline;portConstraint=eastwest;newEdgeStyle={&quot;curved&quot;:0,&quot;rounded&quot;:0};" vertex="1" parent="Ro-iEzOa7eVVy1Xlv3ne-3">
          <mxGeometry x="45" y="60" width="10" height="20" as="geometry" />
        </mxCell>
        <mxCell id="Ro-iEzOa7eVVy1Xlv3ne-4" value="Menu Home" style="shape=umlLifeline;perimeter=lifelinePerimeter;whiteSpace=wrap;html=1;container=1;dropTarget=0;collapsible=0;recursiveResize=0;outlineConnect=0;portConstraint=eastwest;newEdgeStyle={&quot;curved&quot;:0,&quot;rounded&quot;:0};" vertex="1" parent="1">
          <mxGeometry x="395" y="70" width="100" height="300" as="geometry" />
        </mxCell>
        <mxCell id="Ro-iEzOa7eVVy1Xlv3ne-14" value="" style="html=1;points=[[0,0,0,0,5],[0,1,0,0,-5],[1,0,0,0,5],[1,1,0,0,-5]];perimeter=orthogonalPerimeter;outlineConnect=0;targetShapes=umlLifeline;portConstraint=eastwest;newEdgeStyle={&quot;curved&quot;:0,&quot;rounded&quot;:0};" vertex="1" parent="Ro-iEzOa7eVVy1Xlv3ne-4">
          <mxGeometry x="45" y="70" width="10" height="20" as="geometry" />
        </mxCell>
        <mxCell id="Ro-iEzOa7eVVy1Xlv3ne-5" value="Menu Pendaftaran" style="shape=umlLifeline;perimeter=lifelinePerimeter;whiteSpace=wrap;html=1;container=1;dropTarget=0;collapsible=0;recursiveResize=0;outlineConnect=0;portConstraint=eastwest;newEdgeStyle={&quot;curved&quot;:0,&quot;rounded&quot;:0};" vertex="1" parent="1">
          <mxGeometry x="541" y="70" width="100" height="300" as="geometry" />
        </mxCell>
        <mxCell id="Ro-iEzOa7eVVy1Xlv3ne-22" value="" style="html=1;points=[[0,0,0,0,5],[0,1,0,0,-5],[1,0,0,0,5],[1,1,0,0,-5]];perimeter=orthogonalPerimeter;outlineConnect=0;targetShapes=umlLifeline;portConstraint=eastwest;newEdgeStyle={&quot;curved&quot;:0,&quot;rounded&quot;:0};" vertex="1" parent="Ro-iEzOa7eVVy1Xlv3ne-5">
          <mxGeometry x="45" y="82" width="10" height="20" as="geometry" />
        </mxCell>
        <mxCell id="Ro-iEzOa7eVVy1Xlv3ne-7" value="Menu Dokter" style="shape=umlLifeline;perimeter=lifelinePerimeter;whiteSpace=wrap;html=1;container=1;dropTarget=0;collapsible=0;recursiveResize=0;outlineConnect=0;portConstraint=eastwest;newEdgeStyle={&quot;curved&quot;:0,&quot;rounded&quot;:0};" vertex="1" parent="1">
          <mxGeometry x="680" y="70" width="100" height="300" as="geometry" />
        </mxCell>
        <mxCell id="Ro-iEzOa7eVVy1Xlv3ne-23" value="" style="html=1;points=[[0,0,0,0,5],[0,1,0,0,-5],[1,0,0,0,5],[1,1,0,0,-5]];perimeter=orthogonalPerimeter;outlineConnect=0;targetShapes=umlLifeline;portConstraint=eastwest;newEdgeStyle={&quot;curved&quot;:0,&quot;rounded&quot;:0};" vertex="1" parent="Ro-iEzOa7eVVy1Xlv3ne-7">
          <mxGeometry x="45" y="93" width="10" height="20" as="geometry" />
        </mxCell>
        <mxCell id="Ro-iEzOa7eVVy1Xlv3ne-8" value="Menu Lihat Pendaftaran" style="shape=umlLifeline;perimeter=lifelinePerimeter;whiteSpace=wrap;html=1;container=1;dropTarget=0;collapsible=0;recursiveResize=0;outlineConnect=0;portConstraint=eastwest;newEdgeStyle={&quot;curved&quot;:0,&quot;rounded&quot;:0};" vertex="1" parent="1">
          <mxGeometry x="810" y="70" width="100" height="300" as="geometry" />
        </mxCell>
        <mxCell id="Ro-iEzOa7eVVy1Xlv3ne-24" value="" style="html=1;points=[[0,0,0,0,5],[0,1,0,0,-5],[1,0,0,0,5],[1,1,0,0,-5]];perimeter=orthogonalPerimeter;outlineConnect=0;targetShapes=umlLifeline;portConstraint=eastwest;newEdgeStyle={&quot;curved&quot;:0,&quot;rounded&quot;:0};" vertex="1" parent="Ro-iEzOa7eVVy1Xlv3ne-8">
          <mxGeometry x="45" y="103" width="10" height="20" as="geometry" />
        </mxCell>
        <mxCell id="Ro-iEzOa7eVVy1Xlv3ne-33" value="" style="html=1;points=[[0,0,0,0,5],[0,1,0,0,-5],[1,0,0,0,5],[1,1,0,0,-5]];perimeter=orthogonalPerimeter;outlineConnect=0;targetShapes=umlLifeline;portConstraint=eastwest;newEdgeStyle={&quot;curved&quot;:0,&quot;rounded&quot;:0};" vertex="1" parent="Ro-iEzOa7eVVy1Xlv3ne-8">
          <mxGeometry x="45" y="169" width="10" height="40" as="geometry" />
        </mxCell>
        <mxCell id="Ro-iEzOa7eVVy1Xlv3ne-34" value="6. Menampilkan detail pendaftaran" style="html=1;align=left;spacingLeft=2;endArrow=block;rounded=0;edgeStyle=orthogonalEdgeStyle;curved=0;rounded=0;" edge="1" target="Ro-iEzOa7eVVy1Xlv3ne-33" parent="Ro-iEzOa7eVVy1Xlv3ne-8">
          <mxGeometry relative="1" as="geometry">
            <mxPoint x="55" y="120" as="sourcePoint" />
            <Array as="points">
              <mxPoint x="55" y="110" />
              <mxPoint x="85" y="110" />
              <mxPoint x="85" y="174" />
            </Array>
          </mxGeometry>
        </mxCell>
        <mxCell id="Ro-iEzOa7eVVy1Xlv3ne-17" value="" style="group" vertex="1" connectable="0" parent="1">
          <mxGeometry x="159" y="140" width="130" height="30" as="geometry" />
        </mxCell>
        <mxCell id="Ro-iEzOa7eVVy1Xlv3ne-10" value="" style="endArrow=classic;html=1;rounded=0;entryX=0;entryY=0;entryDx=0;entryDy=5;entryPerimeter=0;" edge="1" parent="Ro-iEzOa7eVVy1Xlv3ne-17" source="Ro-iEzOa7eVVy1Xlv3ne-2" target="Ro-iEzOa7eVVy1Xlv3ne-9">
          <mxGeometry width="50" height="50" relative="1" as="geometry">
            <mxPoint x="11" y="30" as="sourcePoint" />
            <mxPoint x="61" y="-20" as="targetPoint" />
          </mxGeometry>
        </mxCell>
        <mxCell id="Ro-iEzOa7eVVy1Xlv3ne-11" value="&lt;font style=&quot;font-size: 9px;&quot;&gt;1. Username dan password&lt;/font&gt;" style="text;html=1;align=center;verticalAlign=middle;resizable=0;points=[];autosize=1;strokeColor=none;fillColor=none;" vertex="1" parent="Ro-iEzOa7eVVy1Xlv3ne-17">
          <mxGeometry width="130" height="30" as="geometry" />
        </mxCell>
        <mxCell id="Ro-iEzOa7eVVy1Xlv3ne-18" value="" style="endArrow=classic;html=1;rounded=0;entryX=0;entryY=0;entryDx=0;entryDy=5;entryPerimeter=0;exitX=1;exitY=1;exitDx=0;exitDy=-5;exitPerimeter=0;" edge="1" parent="1" source="Ro-iEzOa7eVVy1Xlv3ne-9" target="Ro-iEzOa7eVVy1Xlv3ne-14">
          <mxGeometry width="50" height="50" relative="1" as="geometry">
            <mxPoint x="310" y="150" as="sourcePoint" />
            <mxPoint x="429" y="150" as="targetPoint" />
          </mxGeometry>
        </mxCell>
        <mxCell id="Ro-iEzOa7eVVy1Xlv3ne-19" value="&lt;font style=&quot;font-size: 9px;&quot;&gt;2. Masuk ke halaman home&lt;/font&gt;" style="text;html=1;align=center;verticalAlign=middle;resizable=0;points=[];autosize=1;strokeColor=none;fillColor=none;" vertex="1" parent="1">
          <mxGeometry x="300" y="140" width="130" height="30" as="geometry" />
        </mxCell>
        <mxCell id="Ro-iEzOa7eVVy1Xlv3ne-20" value="" style="endArrow=classic;html=1;rounded=0;entryX=0;entryY=0;entryDx=0;entryDy=5;entryPerimeter=0;exitX=1;exitY=1;exitDx=0;exitDy=-5;exitPerimeter=0;" edge="1" parent="1" source="Ro-iEzOa7eVVy1Xlv3ne-14" target="Ro-iEzOa7eVVy1Xlv3ne-22">
          <mxGeometry width="50" height="50" relative="1" as="geometry">
            <mxPoint x="460" y="170" as="sourcePoint" />
            <mxPoint x="579" y="170" as="targetPoint" />
          </mxGeometry>
        </mxCell>
        <mxCell id="Ro-iEzOa7eVVy1Xlv3ne-21" value="&lt;font style=&quot;font-size: 9px;&quot;&gt;3. Melakukan pendaftaran&lt;/font&gt;" style="text;html=1;align=center;verticalAlign=middle;resizable=0;points=[];autosize=1;strokeColor=none;fillColor=none;" vertex="1" parent="1">
          <mxGeometry x="450" y="152" width="130" height="30" as="geometry" />
        </mxCell>
        <mxCell id="Ro-iEzOa7eVVy1Xlv3ne-25" value="" style="endArrow=classic;html=1;rounded=0;exitX=1;exitY=1;exitDx=0;exitDy=-5;exitPerimeter=0;entryX=0;entryY=0;entryDx=0;entryDy=5;entryPerimeter=0;" edge="1" parent="1" source="Ro-iEzOa7eVVy1Xlv3ne-22" target="Ro-iEzOa7eVVy1Xlv3ne-23">
          <mxGeometry width="50" height="50" relative="1" as="geometry">
            <mxPoint x="610" y="180" as="sourcePoint" />
            <mxPoint x="660" y="130" as="targetPoint" />
          </mxGeometry>
        </mxCell>
        <mxCell id="Ro-iEzOa7eVVy1Xlv3ne-26" value="&lt;font style=&quot;font-size: 9px;&quot;&gt;4. Pilih dokter&lt;/font&gt;" style="text;html=1;align=center;verticalAlign=middle;resizable=0;points=[];autosize=1;strokeColor=none;fillColor=none;" vertex="1" parent="1">
          <mxGeometry x="615" y="162" width="80" height="30" as="geometry" />
        </mxCell>
        <mxCell id="Ro-iEzOa7eVVy1Xlv3ne-31" value="7. Mendapatkan nomor antrian" style="html=1;verticalAlign=bottom;endArrow=open;dashed=1;endSize=8;curved=0;rounded=0;exitX=0;exitY=1;exitDx=0;exitDy=-5;exitPerimeter=0;" edge="1" parent="1" target="Ro-iEzOa7eVVy1Xlv3ne-2">
          <mxGeometry relative="1" as="geometry">
            <mxPoint x="855" y="255" as="sourcePoint" />
            <mxPoint x="400" y="390" as="targetPoint" />
          </mxGeometry>
        </mxCell>
        <mxCell id="Ro-iEzOa7eVVy1Xlv3ne-32" value="&lt;font style=&quot;font-size: 9px;&quot;&gt;5.&amp;nbsp; Melihat detail pendaftaran&lt;/font&gt;" style="html=1;verticalAlign=bottom;endArrow=block;curved=0;rounded=0;exitX=1;exitY=1;exitDx=0;exitDy=-5;exitPerimeter=0;entryX=0;entryY=0;entryDx=0;entryDy=5;entryPerimeter=0;" edge="1" parent="1" source="Ro-iEzOa7eVVy1Xlv3ne-23" target="Ro-iEzOa7eVVy1Xlv3ne-24">
          <mxGeometry width="80" relative="1" as="geometry">
            <mxPoint x="750" y="190" as="sourcePoint" />
            <mxPoint x="830" y="190" as="targetPoint" />
          </mxGeometry>
        </mxCell>
      </root>
    </mxGraphModel>
  </diagram>
</mxfile>
